<svg width="24" height="26" viewBox="0 0 24 26" fill="none" xmlns="http://www.w3.org/2000/svg">
<path d="M23.71 1.21627C23.575 1.07657 23.4045 0.979852 23.2185 0.937478C23.0325 0.895105 22.8388 0.908842 22.66 0.977075L0.660001 9.29707C0.470269 9.37192 0.306921 9.50502 0.191652 9.67871C0.0763829 9.85239 0.0146484 10.0584 0.0146484 10.2695C0.0146484 10.4805 0.0763829 10.6866 0.191652 10.8602C0.306921 11.0339 0.470269 11.167 0.660001 11.2419L10.26 15.2355L14.1 25.2195C14.1721 25.4081 14.2958 25.5707 14.4557 25.6871C14.6157 25.8035 14.8049 25.8687 15 25.8747C15.2021 25.8704 15.3982 25.8025 15.5624 25.6799C15.7266 25.5574 15.8513 25.386 15.92 25.1883L23.92 2.30828C23.9881 2.12427 24.0046 1.92392 23.9674 1.73058C23.9302 1.53724 23.8409 1.35887 23.71 1.21627ZM15 21.9227L12.21 14.6427L17 9.66107L15.59 8.19467L10.76 13.2179L3.8 10.2747L21.33 3.69147L15 21.9227Z" fill="#8EC2F2"/>
</svg>
